<?xml version="1.0" encoding="UTF-8"?>
<svg version="1.1" xmlns="http://www.w3.org/2000/svg" width="144" height="144">
<path d="M0 0 C1.68991979 0.9601817 3.36209288 1.95355934 5 3 C7.35815459 2.79681318 7.35815459 2.79681318 10 2 C15.35673746 1.07136851 18.95505446 0.69373918 24 3 C26.31206545 2.71974964 27.81500012 2.10247351 29.84765625 0.9765625 C33.50145127 -0.68123923 37.0718463 -0.55824715 41 0 C44.30790397 1.68402384 46.31788658 2.97682987 48.375 6.0625 C49 8 49 8 49 11 C51.31 11 53.62 11 56 11 C56 11.99 56 12.98 56 14 C55.0925 14 54.185 14 53.25 14 C49.97581481 14.62378522 49.97581481 14.62378522 48.88671875 16.7421875 C48.24745514 18.17855759 47.61078531 19.61608455 46.9765625 21.0546875 C45.49436393 24.00722705 44.09547301 24.89938737 41 26 C36.25381102 26.69434987 32.95185639 26.47592819 28.625 24.3125 C25.43587653 21.50303408 23.25158097 19.37604247 22.7890625 15.0078125 C22.72955217 11.75854826 22.96998803 9.0900359 24 6 C22.27185839 5.80327635 20.54240803 5.61803201 18.8125 5.4375 C17.84957031 5.33308594 16.88664062 5.22867188 15.89453125 5.12109375 C13.05766623 5.00241249 10.74576329 5.32234361 8 6 C8.495 7.485 8.495 7.485 9 9 C9.38773716 13.73039335 9.48117872 16.05546399 7.3125 20.3125 C4.42032095 23.67368105 2.36610407 25.68969127 -2.14453125 26.28125 C-6.85486843 26.46872611 -10.38995195 26.30061536 -14 23 C-14.65932095 21.6622077 -15.2815047 20.3057674 -15.875 18.9375 C-17.19831779 15.90690748 -17.19831779 15.90690748 -19.8046875 14.03515625 C-21.94605569 13.40576575 -21.94605569 13.40576575 -25 13 C-24.67 12.34 -24.34 11.68 -24 11 C-21.69 11 -19.38 11 -17 11 C-16.9071875 9.9171875 -16.9071875 9.9171875 -16.8125 8.8125 C-15.7463595 5.12201365 -13.85208836 3.50427271 -11 1 C-7.56590442 -0.71704779 -3.76307426 -0.3992131 0 0 Z " fill="#E9BB57" transform="translate(56,66)"/>
<path d="M0 0 C0.72363235 -0.01299637 1.44726471 -0.02599274 2.19282532 -0.03938293 C9.76966489 -0.16620538 17.34763035 -0.2228659 24.92529297 -0.27441406 C28.5225969 -0.30116677 32.11857707 -0.34989884 35.71533203 -0.41796875 C40.05438356 -0.49988445 44.39217371 -0.54259216 48.73195648 -0.55747795 C50.38589079 -0.56973422 52.03978287 -0.59578768 53.69327545 -0.6359272 C66.60966504 -0.93375464 66.60966504 -0.93375464 70.1619873 1.90115356 C71.53032046 4.01069299 72.32693035 5.84757635 73.08105469 8.24047852 C74.07105469 10.71547852 74.07105469 10.71547852 75.08105469 13.24047852 C45.71105469 13.24047852 16.34105469 13.24047852 -13.91894531 13.24047852 C-7.36001509 0.12261807 -7.36001509 0.12261807 0 0 Z " fill="#E6C658" transform="translate(41.9189453125,28.759521484375)"/>
<path d="M0 0 C16.5 0 33 0 50 0 C56 12 56 12 56 14 C35.21 14 14.42 14 -7 14 C-4.69 9.38 -2.38 4.76 0 0 Z " fill="#F1CE59" transform="translate(48,3)"/>
<path d="M0 0 C37.62 0 75.24 0 114 0 C114.495 1.98 114.495 1.98 115 4 C113 6 113 6 111.01034546 6.24888897 C110.18886017 6.2483442 109.36737488 6.24779943 108.52099609 6.24723816 C107.57875183 6.25143265 106.63650757 6.25562714 105.66571045 6.25994873 C104.62876038 6.25432922 103.5918103 6.24870972 102.5234375 6.24291992 C100.88921844 6.24576744 100.88921844 6.24576744 99.22198486 6.24867249 C95.60625097 6.2523893 91.99071616 6.24166311 88.375 6.23046875 C85.87158227 6.22927735 83.36816409 6.2288237 80.86474609 6.2290802 C75.61228102 6.22751377 70.35986762 6.21945363 65.10742188 6.20581055 C59.03054285 6.19008457 52.95372705 6.18481242 46.87682915 6.1855461 C41.03663103 6.18615603 35.19645422 6.18094591 29.35626221 6.17275429 C26.86826706 6.1695633 24.38027003 6.16759922 21.89227295 6.16686058 C18.42033684 6.16470157 14.94848139 6.15596679 11.4765625 6.14526367 C10.43961243 6.14571686 9.40266235 6.14617004 8.33428955 6.14663696 C7.39204529 6.14237198 6.44980103 6.13810699 5.47900391 6.13371277 C4.65751862 6.13203692 3.83603333 6.13036108 2.98965454 6.12863445 C1 6 1 6 -1 5 C-0.67 3.35 -0.34 1.7 0 0 Z " fill="#DDBF58" transform="translate(16,44)"/>
<path d="M0 0 C1.16582108 0.01110306 2.33164215 0.02220612 3.53279114 0.03364563 C4.17696487 0.0329155 4.82113861 0.03218536 5.48483276 0.03143311 C7.61211141 0.03491417 9.73719448 0.07379175 11.86408997 0.11299133 C13.3395264 0.12231781 14.81497833 0.12943471 16.29043579 0.13442993 C20.17229528 0.15351334 24.05321806 0.20262387 27.93470764 0.25794983 C31.89606555 0.30911446 35.85757495 0.3319379 39.81916809 0.35713196 C47.59107933 0.4107429 55.36221899 0.49606988 63.13362122 0.60127258 C66.13362122 6.22627258 66.13362122 6.22627258 66.13362122 9.60127258 C42.04362122 9.60127258 17.95362122 9.60127258 -6.86637878 9.60127258 C-4.7132311 0.98868183 -4.7132311 0.98868183 0 0 Z " fill="#DEC058" transform="translate(42.86637878417969,18.398727416992188)"/>
<path d="M0 0 C3.30790397 1.68402384 5.31788658 2.97682987 7.375 6.0625 C8 8 8 8 8 11 C10.31 11 12.62 11 15 11 C15 11.99 15 12.98 15 14 C14.0925 14 13.185 14 12.25 14 C8.97581481 14.62378522 8.97581481 14.62378522 7.88671875 16.7421875 C7.24745514 18.17855759 6.61078531 19.61608455 5.9765625 21.0546875 C4.49436393 24.00722705 3.09547301 24.89938737 0 26 C-4.74618898 26.69434987 -8.04814361 26.47592819 -12.375 24.3125 C-15.54854386 21.51675898 -17.74226847 19.39117582 -18.2109375 15.04296875 C-18.27514911 11.58196313 -18.09838413 8.29515239 -17 5 C-16.01 5 -15.02 5 -14 5 C-13.731875 4.360625 -13.46375 3.72125 -13.1875 3.0625 C-10.67100537 -1.30825383 -4.48104589 -0.55821903 0 0 Z " fill="#ECD75A" transform="translate(97,66)"/>
<path d="M0 0 C2.66647686 0.35574477 3.74462842 0.69364582 5.49560547 2.79418945 C6.97254025 5.29141328 8.44109685 7.79023479 9.875 10.3125 C10.66003906 11.61477539 10.66003906 11.61477539 11.4609375 12.94335938 C11.945625 13.78318359 12.4303125 14.62300781 12.9296875 15.48828125 C13.37554199 16.25696533 13.82139648 17.02564941 14.28076172 17.81762695 C15 20 15 20 14.34057617 22.04711914 C12.90349974 24.1405765 11.38016243 25.9255963 9.62109375 27.7578125 C8.95078125 28.46172119 8.28046875 29.16562988 7.58984375 29.89086914 C6.87957031 30.62813232 6.16929687 31.36539551 5.4375 32.125 C3.98745353 33.64634692 2.53823083 35.16847943 1.08984375 36.69140625 C0.03772705 37.79572998 0.03772705 37.79572998 -1.03564453 38.92236328 C-4.77240281 42.87461445 -8.39653042 46.92607744 -12 51 C-7.86993456 56.10823884 -3.40468679 60.43419834 1.51953125 64.77734375 C4.81054404 67.72629852 7.92246273 70.83074805 11 74 C10.505 75.485 10.505 75.485 10 77 C6.23515422 74.9222568 3.41580569 72.6324442 0.42578125 69.55078125 C-0.40630859 68.70322266 -1.23839844 67.85566406 -2.09570312 66.98242188 C-3.37864258 65.66081055 -3.37864258 65.66081055 -4.6875 64.3125 C-6.39512 62.55409576 -8.10712987 60.79994027 -9.82421875 59.05078125 C-10.57791748 58.27387939 -11.33161621 57.49697754 -12.1081543 56.6965332 C-13.82464355 54.77745622 -13.82464355 54.77745622 -16 55 C-17.36657834 56.31234409 -17.36657834 56.31234409 -18.8125 58.125 C-22.3897798 62.31487952 -26.03931124 66.42828517 -29.75 70.5 C-30.3169458 71.13566895 -30.8838916 71.77133789 -31.46801758 72.42626953 C-32.2804895 73.31354736 -32.2804895 73.31354736 -33.109375 74.21875 C-33.59374023 74.75435547 -34.07810547 75.28996094 -34.57714844 75.84179688 C-36 77 -36 77 -39 77 C-37.68383888 74.10940624 -36.24755763 71.97437707 -34.05859375 69.6796875 C-33.47964355 69.06722168 -32.90069336 68.45475586 -32.30419922 67.82373047 C-31.68818848 67.18064941 -31.07217773 66.53756836 -30.4375 65.875 C-29.15687412 64.52147446 -27.87692557 63.16730775 -26.59765625 61.8125 C-25.97648926 61.15636719 -25.35532227 60.50023437 -24.71533203 59.82421875 C-22.56643871 57.53891689 -20.4645098 55.21463528 -18.375 52.875 C-15.01220544 49.1143887 -11.6101377 45.39348496 -8.1875 41.6875 C-7.44149536 40.87418213 -7.44149536 40.87418213 -6.68041992 40.04443359 C-4.00712578 37.13691042 -1.30049369 34.27351315 1.46875 31.45703125 C2.02844482 30.87800049 2.58813965 30.29896973 3.16479492 29.70239258 C4.24136289 28.5900932 5.32970412 27.4890376 6.4309082 26.40112305 C9.26348618 23.46709452 9.26348618 23.46709452 10.109375 19.60546875 C8.55256731 15.94916336 6.56087265 12.66502252 4.4375 9.3125 C0 2.24886191 0 2.24886191 0 0 Z " fill="#C7AE57" transform="translate(125,66)"/>
<path d="M0 0 C0.99 0 1.98 0 3 0 C1.45236643 5.45787797 -1.17340673 9.62295159 -4.4296875 14.23242188 C-6.21808854 16.94397237 -7.11968704 18.37465841 -6.49609375 21.6328125 C-4.83811084 24.25614839 -3.07210672 26.185125 -0.8125 28.3125 C1.97190519 31.0043854 4.67226563 33.67986588 7.1875 36.625 C10.60198441 40.60196328 14.16672188 44.42585741 17.75 48.25 C42 74.14718198 42 74.14718198 42 77 C38.5794002 76.42455026 37.04472087 75.37701408 34.72265625 72.83203125 C34.12646484 72.18556641 33.53027344 71.53910156 32.91601562 70.87304688 C32.30435547 70.19306641 31.69269531 69.51308594 31.0625 68.8125 C30.45470703 68.15185547 29.84691406 67.49121094 29.22070312 66.81054688 C25.69974045 62.9629361 22.30585174 59.0335155 19 55 C15.33247995 56.5391801 13.01419427 58.75485452 10.234375 61.5703125 C9.34492188 62.46621094 8.45546875 63.36210937 7.5390625 64.28515625 C6.15847656 65.69087891 6.15847656 65.69087891 4.75 67.125 C3.80515144 68.07988637 2.85984367 69.03431859 1.9140625 69.98828125 C-0.39518338 72.32109087 -2.69963203 74.65844086 -5 77 C-5.99 76.67 -6.98 76.34 -8 76 C-3.32533663 70.37696243 1.67765667 65.20258446 6.875 60.0625 C7.65875 59.28326172 8.4425 58.50402344 9.25 57.70117188 C11.16438581 55.79845915 13.08108034 53.89813829 15 52 C11.90359893 47.75556751 8.88927802 43.62451702 5.0625 40 C1.71594233 36.74924074 -1.37009569 33.36612853 -4.38671875 29.80859375 C-6.13826922 27.77019051 -6.13826922 27.77019051 -9 25.375 C-11 23 -11 23 -10.9296875 20.40625 C-9.6853192 15.84705185 -7.54010525 12.16157817 -5.125 8.125 C-4.67769531 7.34125 -4.23039063 6.5575 -3.76953125 5.75 C-3.33253906 5.01007813 -2.89554688 4.27015625 -2.4453125 3.5078125 C-1.85000732 2.49678467 -1.85000732 2.49678467 -1.24267578 1.46533203 C-0.83259277 0.98177246 -0.42250977 0.49821289 0 0 Z " fill="#CEAF57" transform="translate(16,66)"/>
<path d="M0 0 C2.66647686 0.35574477 3.74462842 0.69364582 5.49560547 2.79418945 C6.97254025 5.29141328 8.44109685 7.79023479 9.875 10.3125 C10.39835937 11.18068359 10.92171875 12.04886719 11.4609375 12.94335938 C11.945625 13.78318359 12.4303125 14.62300781 12.9296875 15.48828125 C13.37554199 16.25696533 13.82139648 17.02564941 14.28076172 17.81762695 C15 20 15 20 14.3515625 22.03393555 C12.8602861 24.20323627 11.26189341 26.06219366 9.4453125 27.96875 C8.74792969 28.70480469 8.05054688 29.44085938 7.33203125 30.19921875 C6.60371094 30.95847656 5.87539062 31.71773437 5.125 32.5 C4.40441406 33.25925781 3.68382812 34.01851562 2.94140625 34.80078125 C-0.33198332 38.24296439 -3.63217474 41.64991488 -7 45 C-7.29846301 41.96824418 -7.38842748 40.50546017 -5.49609375 38.04296875 C-4.81675781 37.43066406 -4.13742188 36.81835938 -3.4375 36.1875 C0.13263064 32.8456548 3.37478965 29.37640836 6.5546875 25.6640625 C7.65402798 24.39833536 8.8145434 23.1854566 10 22 C9.79427037 17.08932311 6.98817742 13.33967981 4.4375 9.3125 C0 2.24886191 0 2.24886191 0 0 Z " fill="#CFC259" transform="translate(125,66)"/>
<path d="M0 0 C0.99 0 1.98 0 3 0 C1.45236643 5.45787797 -1.17340673 9.62295159 -4.4296875 14.23242188 C-6.20308057 16.92121748 -7.1141775 18.3748314 -6.5234375 21.609375 C-4.75280147 24.38791153 -2.78099726 26.43808352 -0.375 28.6875 C1.11815063 30.08880067 2.58589391 31.51897119 4 33 C4 33.66 4 34.32 4 35 C2.515 35.495 2.515 35.495 1 36 C0.55269531 35.48050781 0.10539062 34.96101563 -0.35546875 34.42578125 C-0.96003906 33.72839844 -1.56460937 33.03101563 -2.1875 32.3125 C-2.82042969 31.57902344 -3.45335937 30.84554687 -4.10546875 30.08984375 C-6.0924192 27.81735232 -6.0924192 27.81735232 -9 25.375 C-11 23 -11 23 -10.9296875 20.40625 C-9.6853192 15.84705185 -7.54010525 12.16157817 -5.125 8.125 C-4.67769531 7.34125 -4.23039063 6.5575 -3.76953125 5.75 C-3.33253906 5.01007813 -2.89554688 4.27015625 -2.4453125 3.5078125 C-1.85000732 2.49678467 -1.85000732 2.49678467 -1.24267578 1.46533203 C-0.83259277 0.98177246 -0.42250977 0.49821289 0 0 Z " fill="#CAA255" transform="translate(16,66)"/>
<path d="M0 0 C0.33 0.99 0.66 1.98 1 3 C0.03900391 3.94359375 0.03900391 3.94359375 -0.94140625 4.90625 C-5.68392563 9.59929451 -10.29582904 14.32779945 -14.625 19.40625 C-15.69849686 20.65053045 -16.83796959 21.83796959 -18 23 C-18.99 23 -19.98 23 -21 23 C-19.64137942 19.98493928 -18.09536637 17.81800066 -15.8125 15.43359375 C-15.19632812 14.78326172 -14.58015625 14.13292969 -13.9453125 13.46289062 C-13.30335937 12.79451172 -12.66140625 12.12613281 -12 11.4375 C-10.72725087 10.10469142 -9.45634073 8.77012368 -8.1875 7.43359375 C-7.34251953 6.55272095 -7.34251953 6.55272095 -6.48046875 5.65405273 C-4.804451 3.86007264 -4.804451 3.86007264 -3 1 C-2.01 0.67 -1.02 0.34 0 0 Z " fill="#CBA556" transform="translate(107,120)"/>
<path d="M0 0 C5.29012124 4.40843437 10.18808428 9.07559794 15 14 C14.67 14.99 14.34 15.98 14 17 C9.73236687 14.7140466 6.52336376 11.76416143 3.1875 8.3125 C2.68541016 7.80138672 2.18332031 7.29027344 1.66601562 6.76367188 C0.43936491 5.51365638 -0.78097491 4.2574532 -2 3 C-1.34 2.67 -0.68 2.34 0 2 C0 1.34 0 0.68 0 0 Z " fill="#B5A857" transform="translate(121,126)"/>
<path d="M0 0 C6.86461131 2.91745981 12.80295121 9.97814739 17 16 C17 16.66 17 17.32 17 18 C13.64128023 17.42257751 12.07534535 16.42488613 9.765625 13.9453125 C9.19199219 13.33042969 8.61835937 12.71554688 8.02734375 12.08203125 C7.44082031 11.43621094 6.85429688 10.79039062 6.25 10.125 C5.64800781 9.48691406 5.04601563 8.84882813 4.42578125 8.19140625 C0 3.38426516 0 3.38426516 0 0 Z " fill="#D0C359" transform="translate(41,125)"/>
<path d="M0 0 C-3.51827425 2.34551617 -4.33320226 2.0995608 -8.375 1.5625 C-12.18830078 1.06351436 -15.28212341 0.88989197 -19 2 C-19.33 2.66 -19.66 3.32 -20 4 C-20 3.01 -20 2.02 -20 1 C-20.66 0.67 -21.32 0.34 -22 0 C-14.24046874 -3.52705966 -7.8220976 -3.78488594 0 0 Z " fill="#BFAA57" transform="translate(83,70)"/>
<path d="M0 0 C1.66666667 1.66666667 3.33333333 3.33333333 5 5 C5.928125 5.886875 6.85625 6.77375 7.8125 7.6875 C10 10 10 10 10 12 C6.71245489 11.42110619 5.06327505 10.45171589 2.75 8.0625 C2.22921875 7.53785156 1.7084375 7.01320313 1.171875 6.47265625 C0 5 0 5 0 3 C-0.66 2.67 -1.32 2.34 -2 2 C-1.34 1.34 -0.68 0.68 0 0 Z " fill="#D6BC58" transform="translate(111,116)"/>
<path d="M0 0 C1.8125 0.1875 1.8125 0.1875 4 1 C7 5.17857143 7 5.17857143 7 8 C6.01 8.33 5.02 8.66 4 9 C0 2.25 0 2.25 0 0 Z " fill="#C5B858" transform="translate(125,66)"/>
<path d="M0 0 C-2.38233524 1.2827959 -4.59110551 2.18544487 -7.1875 3 C-10.12865478 3.67987492 -10.12865478 3.67987492 -11 6 C-11 5.01 -11 4.02 -11 3 C-11.66 2.67 -12.32 2.34 -13 2 C-8.50343896 -0.24828052 -4.92127034 -0.16682272 0 0 Z " fill="#D1B457" transform="translate(74,68)"/>
<path d="M0 0 C3.26954202 0.56371414 4.82575883 1.49962266 7 4 C6.67 4.99 6.34 5.98 6 7 C1.2 4.53846154 1.2 4.53846154 0.1875 1.8125 C0.125625 1.214375 0.06375 0.61625 0 0 Z " fill="#BEB459" transform="translate(129,136)"/>
</svg>
